<mxfile host="65bd71144e">
    <diagram id="C5RBs43oDa-KdzZeNtuy" name="Page-1">
        <mxGraphModel dx="6047" dy="2439" grid="1" gridSize="10" guides="1" tooltips="1" connect="1" arrows="1" fold="1" page="1" pageScale="1" pageWidth="827" pageHeight="1169" math="0" shadow="0">
            <root>
                <mxCell id="WIyWlLk6GJQsqaUBKTNV-0"/>
                <mxCell id="WIyWlLk6GJQsqaUBKTNV-1" parent="WIyWlLk6GJQsqaUBKTNV-0"/>
                <mxCell id="cPZUplwMds5rWrjOJL3n-114" value="" style="rounded=1;whiteSpace=wrap;html=1;fontSize=16;" parent="WIyWlLk6GJQsqaUBKTNV-1" vertex="1">
                    <mxGeometry x="-250" y="245" width="710" height="1260" as="geometry"/>
                </mxCell>
                <mxCell id="15" value="" style="rounded=1;whiteSpace=wrap;html=1;fontSize=16;" parent="WIyWlLk6GJQsqaUBKTNV-1" vertex="1">
                    <mxGeometry x="-220" y="-125" width="634" height="360" as="geometry"/>
                </mxCell>
                <mxCell id="127" style="edgeStyle=none;rounded=0;html=1;entryX=0.5;entryY=0;entryDx=0;entryDy=0;strokeColor=default;" parent="WIyWlLk6GJQsqaUBKTNV-1" source="WIyWlLk6GJQsqaUBKTNV-3" target="WIyWlLk6GJQsqaUBKTNV-6" edge="1">
                    <mxGeometry relative="1" as="geometry"/>
                </mxCell>
                <mxCell id="WIyWlLk6GJQsqaUBKTNV-3" value="&lt;font&gt;Upload file&lt;/font&gt;" style="rounded=1;whiteSpace=wrap;html=1;fontSize=16;glass=0;strokeWidth=1;shadow=0;" parent="WIyWlLk6GJQsqaUBKTNV-1" vertex="1">
                    <mxGeometry x="233.44" y="70" width="120" height="40" as="geometry"/>
                </mxCell>
                <mxCell id="79" style="edgeStyle=none;html=1;fontSize=16;" parent="WIyWlLk6GJQsqaUBKTNV-1" source="WIyWlLk6GJQsqaUBKTNV-6" target="78" edge="1">
                    <mxGeometry relative="1" as="geometry"/>
                </mxCell>
                <mxCell id="129" style="edgeStyle=none;rounded=0;html=1;strokeColor=default;" parent="WIyWlLk6GJQsqaUBKTNV-1" source="WIyWlLk6GJQsqaUBKTNV-6" edge="1">
                    <mxGeometry relative="1" as="geometry">
                        <mxPoint x="155" y="30" as="targetPoint"/>
                        <Array as="points">
                            <mxPoint x="155" y="180"/>
                        </Array>
                    </mxGeometry>
                </mxCell>
                <mxCell id="WIyWlLk6GJQsqaUBKTNV-6" value="&lt;font&gt;* .GEO ?&lt;/font&gt;" style="rhombus;whiteSpace=wrap;html=1;shadow=0;fontFamily=Helvetica;fontSize=16;align=center;strokeWidth=1;spacing=6;spacingTop=-4;" parent="WIyWlLk6GJQsqaUBKTNV-1" vertex="1">
                    <mxGeometry x="243.44" y="140" width="100" height="80" as="geometry"/>
                </mxCell>
                <mxCell id="9" style="edgeStyle=none;html=1;entryX=0.5;entryY=0;entryDx=0;entryDy=0;endArrow=classic;endFill=1;fontSize=16;strokeWidth=1;" parent="WIyWlLk6GJQsqaUBKTNV-1" source="6" target="8" edge="1">
                    <mxGeometry relative="1" as="geometry"/>
                </mxCell>
                <mxCell id="6" value="&lt;font&gt;Encode bytes to base 64&lt;/font&gt;" style="rounded=1;whiteSpace=wrap;html=1;fontSize=16;glass=0;strokeWidth=1;shadow=0;" parent="WIyWlLk6GJQsqaUBKTNV-1" vertex="1">
                    <mxGeometry x="159.69" y="450" width="114.37" height="46.88" as="geometry"/>
                </mxCell>
                <mxCell id="88" style="edgeStyle=none;html=1;fontSize=16;" parent="WIyWlLk6GJQsqaUBKTNV-1" source="8" target="55" edge="1">
                    <mxGeometry relative="1" as="geometry"/>
                </mxCell>
                <mxCell id="8" value="&lt;font&gt;Send encoded bytes to Resource Predicition&amp;nbsp; Service&amp;nbsp;&lt;/font&gt;&lt;span&gt;(RP)&lt;/span&gt;" style="rounded=1;whiteSpace=wrap;html=1;fontSize=16;glass=0;strokeWidth=1;shadow=0;" parent="WIyWlLk6GJQsqaUBKTNV-1" vertex="1">
                    <mxGeometry x="151.25" y="550" width="132.5" height="100" as="geometry"/>
                </mxCell>
                <mxCell id="16" value="&lt;b&gt;&lt;u&gt;Frontend&lt;/u&gt;&lt;/b&gt;" style="text;html=1;strokeColor=none;fillColor=none;align=center;verticalAlign=middle;whiteSpace=wrap;rounded=0;fontSize=16;" parent="WIyWlLk6GJQsqaUBKTNV-1" vertex="1">
                    <mxGeometry x="-210" y="-100" width="60" height="30" as="geometry"/>
                </mxCell>
                <mxCell id="33" style="edgeStyle=none;html=1;startArrow=none;startFill=0;endArrow=openThin;endFill=0;entryX=0.5;entryY=1;entryDx=0;entryDy=0;fontSize=16;" parent="WIyWlLk6GJQsqaUBKTNV-1" source="18" target="48" edge="1">
                    <mxGeometry relative="1" as="geometry">
                        <mxPoint x="-90" y="50" as="targetPoint"/>
                    </mxGeometry>
                </mxCell>
                <mxCell id="18" value="&lt;font&gt;Show PCF report&lt;/font&gt;" style="rounded=1;whiteSpace=wrap;html=1;fontSize=16;glass=0;strokeWidth=1;shadow=0;" parent="WIyWlLk6GJQsqaUBKTNV-1" vertex="1">
                    <mxGeometry x="-195" y="160" width="120" height="40" as="geometry"/>
                </mxCell>
                <mxCell id="23" value="" style="endArrow=classic;html=1;startArrow=none;startFill=0;endFill=1;exitX=0.5;exitY=1;exitDx=0;exitDy=0;fontSize=16;" parent="WIyWlLk6GJQsqaUBKTNV-1" source="49" target="29" edge="1">
                    <mxGeometry width="50" height="50" relative="1" as="geometry">
                        <mxPoint x="305" y="20" as="sourcePoint"/>
                        <mxPoint x="309.58" y="60" as="targetPoint"/>
                    </mxGeometry>
                </mxCell>
                <mxCell id="126" style="edgeStyle=none;rounded=0;html=1;entryX=0.5;entryY=0;entryDx=0;entryDy=0;strokeColor=default;" parent="WIyWlLk6GJQsqaUBKTNV-1" source="29" target="123" edge="1">
                    <mxGeometry relative="1" as="geometry"/>
                </mxCell>
                <mxCell id="34" style="edgeStyle=none;html=1;startArrow=none;startFill=0;endArrow=classic;endFill=1;entryX=0.482;entryY=0.022;entryDx=0;entryDy=0;entryPerimeter=0;fontSize=16;" parent="WIyWlLk6GJQsqaUBKTNV-1" source="32" target="35" edge="1">
                    <mxGeometry relative="1" as="geometry">
                        <mxPoint x="220" y="900" as="targetPoint"/>
                    </mxGeometry>
                </mxCell>
                <mxCell id="32" value="Recieve the estimated resources&amp;nbsp;&amp;nbsp;" style="rounded=1;whiteSpace=wrap;html=1;fontSize=16;glass=0;strokeWidth=1;shadow=0;" parent="WIyWlLk6GJQsqaUBKTNV-1" vertex="1">
                    <mxGeometry x="155.94" y="890" width="122.5" height="60" as="geometry"/>
                </mxCell>
                <mxCell id="36" style="edgeStyle=none;html=1;startArrow=none;startFill=0;endArrow=classic;endFill=1;entryX=0.5;entryY=0;entryDx=0;entryDy=0;fontSize=16;" parent="WIyWlLk6GJQsqaUBKTNV-1" source="35" target="38" edge="1">
                    <mxGeometry relative="1" as="geometry">
                        <mxPoint x="220" y="990" as="targetPoint"/>
                    </mxGeometry>
                </mxCell>
                <mxCell id="35" value="Send energy(kwh) to NASH Service" style="rounded=1;whiteSpace=wrap;html=1;fontSize=16;glass=0;strokeWidth=1;shadow=0;" parent="WIyWlLk6GJQsqaUBKTNV-1" vertex="1">
                    <mxGeometry x="151.25" y="980" width="138.75" height="70" as="geometry"/>
                </mxCell>
                <mxCell id="93" style="edgeStyle=none;html=1;fontSize=16;entryX=0.5;entryY=0;entryDx=0;entryDy=0;" parent="WIyWlLk6GJQsqaUBKTNV-1" source="37" target="117" edge="1">
                    <mxGeometry relative="1" as="geometry">
                        <mxPoint x="221.04477611940297" y="1351.0447761194027" as="targetPoint"/>
                    </mxGeometry>
                </mxCell>
                <mxCell id="37" value="Calculate PCF&amp;nbsp;" style="rounded=1;whiteSpace=wrap;html=1;fontSize=16;glass=0;strokeWidth=1;shadow=0;" parent="WIyWlLk6GJQsqaUBKTNV-1" vertex="1">
                    <mxGeometry x="162.5" y="1230" width="120" height="50" as="geometry"/>
                </mxCell>
                <mxCell id="41" style="edgeStyle=none;html=1;startArrow=none;startFill=0;endArrow=classic;endFill=1;entryX=0.996;entryY=0.818;entryDx=0;entryDy=0;entryPerimeter=0;fontSize=16;" parent="WIyWlLk6GJQsqaUBKTNV-1" source="38" target="47" edge="1">
                    <mxGeometry relative="1" as="geometry">
                        <mxPoint x="90" y="1085" as="targetPoint"/>
                    </mxGeometry>
                </mxCell>
                <mxCell id="94" style="edgeStyle=none;html=1;fontSize=16;entryX=0.483;entryY=0.009;entryDx=0;entryDy=0;entryPerimeter=0;" parent="WIyWlLk6GJQsqaUBKTNV-1" source="38" target="37" edge="1">
                    <mxGeometry relative="1" as="geometry"/>
                </mxCell>
                <mxCell id="38" value="Valid response ?" style="rhombus;whiteSpace=wrap;html=1;fontSize=16;" parent="WIyWlLk6GJQsqaUBKTNV-1" vertex="1">
                    <mxGeometry x="151.25" y="1080" width="138.75" height="120" as="geometry"/>
                </mxCell>
                <mxCell id="40" value="yes" style="text;html=1;align=center;verticalAlign=middle;resizable=0;points=[];autosize=1;strokeColor=none;fillColor=none;fontSize=16;" parent="WIyWlLk6GJQsqaUBKTNV-1" vertex="1">
                    <mxGeometry x="218.75" y="1190" width="50" height="30" as="geometry"/>
                </mxCell>
                <mxCell id="64" style="edgeStyle=none;html=1;startArrow=none;startFill=0;endArrow=classic;endFill=1;fontSize=16;entryX=0.25;entryY=1;entryDx=0;entryDy=0;" parent="WIyWlLk6GJQsqaUBKTNV-1" source="47" target="57" edge="1">
                    <mxGeometry relative="1" as="geometry">
                        <mxPoint x="-10" y="360" as="targetPoint"/>
                    </mxGeometry>
                </mxCell>
                <mxCell id="101" style="edgeStyle=none;rounded=0;html=1;endArrow=classic;endFill=1;fontSize=16;" parent="WIyWlLk6GJQsqaUBKTNV-1" source="47" edge="1">
                    <mxGeometry relative="1" as="geometry">
                        <mxPoint x="160" y="1270" as="targetPoint"/>
                        <Array as="points">
                            <mxPoint x="-30" y="1270"/>
                        </Array>
                    </mxGeometry>
                </mxCell>
                <mxCell id="47" value="Switch to manuel&amp;nbsp; calculation" style="rounded=1;whiteSpace=wrap;html=1;fontSize=16;" parent="WIyWlLk6GJQsqaUBKTNV-1" vertex="1">
                    <mxGeometry x="-100" y="1070" width="140" height="85" as="geometry"/>
                </mxCell>
                <mxCell id="48" value="" style="ellipse;html=1;shape=endState;fillColor=strokeColor;fontSize=16;" parent="WIyWlLk6GJQsqaUBKTNV-1" vertex="1">
                    <mxGeometry x="-150" y="-180" width="30" height="30" as="geometry"/>
                </mxCell>
                <mxCell id="49" value="" style="ellipse;fillColor=strokeColor;fontSize=16;" parent="WIyWlLk6GJQsqaUBKTNV-1" vertex="1">
                    <mxGeometry x="278.44" y="-180" width="30" height="30" as="geometry"/>
                </mxCell>
                <mxCell id="60" style="edgeStyle=none;html=1;entryX=0.5;entryY=0;entryDx=0;entryDy=0;startArrow=none;startFill=0;endArrow=classic;endFill=1;fontSize=16;" parent="WIyWlLk6GJQsqaUBKTNV-1" source="55" target="32" edge="1">
                    <mxGeometry relative="1" as="geometry"/>
                </mxCell>
                <mxCell id="61" style="edgeStyle=none;html=1;startArrow=none;startFill=0;endArrow=classic;endFill=1;rounded=0;fontSize=16;entryX=0.217;entryY=1.071;entryDx=0;entryDy=0;entryPerimeter=0;" parent="WIyWlLk6GJQsqaUBKTNV-1" source="55" target="137" edge="1">
                    <mxGeometry relative="1" as="geometry">
                        <mxPoint x="70" y="360" as="targetPoint"/>
                        <Array as="points">
                            <mxPoint x="90" y="770"/>
                        </Array>
                    </mxGeometry>
                </mxCell>
                <mxCell id="55" value="Valid Response ?" style="rhombus;fontSize=16;" parent="WIyWlLk6GJQsqaUBKTNV-1" vertex="1">
                    <mxGeometry x="143.75" y="710" width="146.25" height="120" as="geometry"/>
                </mxCell>
                <mxCell id="146" style="edgeStyle=none;rounded=0;html=1;entryX=0.427;entryY=1.047;entryDx=0;entryDy=0;strokeColor=default;entryPerimeter=0;" parent="WIyWlLk6GJQsqaUBKTNV-1" source="57" target="65" edge="1">
                    <mxGeometry relative="1" as="geometry"/>
                </mxCell>
                <mxCell id="57" value="&lt;font&gt;Safe Error Message&lt;/font&gt;" style="rounded=1;whiteSpace=wrap;html=1;fontSize=16;glass=0;strokeWidth=1;shadow=0;" parent="WIyWlLk6GJQsqaUBKTNV-1" vertex="1">
                    <mxGeometry x="-50" y="310" width="100" height="40" as="geometry"/>
                </mxCell>
                <mxCell id="62" value="yes" style="text;html=1;align=center;verticalAlign=middle;resizable=0;points=[];autosize=1;strokeColor=none;fillColor=none;fontSize=16;" parent="WIyWlLk6GJQsqaUBKTNV-1" vertex="1">
                    <mxGeometry x="215" y="860" width="50" height="30" as="geometry"/>
                </mxCell>
                <mxCell id="132" style="edgeStyle=none;rounded=0;html=1;entryX=1;entryY=0.5;entryDx=0;entryDy=0;strokeColor=default;" parent="WIyWlLk6GJQsqaUBKTNV-1" source="65" target="18" edge="1">
                    <mxGeometry relative="1" as="geometry"/>
                </mxCell>
                <mxCell id="65" value="Show error popup" style="rounded=1;whiteSpace=wrap;html=1;fontSize=16;glass=0;strokeWidth=1;shadow=0;" parent="WIyWlLk6GJQsqaUBKTNV-1" vertex="1">
                    <mxGeometry x="-50" y="160" width="120" height="40" as="geometry"/>
                </mxCell>
                <mxCell id="78" value="" style="html=1;points=[];perimeter=orthogonalPerimeter;rotation=-90;fontSize=16;" parent="WIyWlLk6GJQsqaUBKTNV-1" vertex="1">
                    <mxGeometry x="290" y="310" width="10" height="171.25" as="geometry"/>
                </mxCell>
                <mxCell id="82" style="edgeStyle=none;html=1;fontSize=16;entryX=0.483;entryY=0;entryDx=0;entryDy=0;entryPerimeter=0;" parent="WIyWlLk6GJQsqaUBKTNV-1" target="6" edge="1">
                    <mxGeometry relative="1" as="geometry">
                        <mxPoint x="214.89999999999998" y="399.9999999999999" as="sourcePoint"/>
                        <mxPoint x="214.89999999999998" y="432.5" as="targetPoint"/>
                    </mxGeometry>
                </mxCell>
                <mxCell id="83" style="edgeStyle=none;html=1;entryX=0.5;entryY=0;entryDx=0;entryDy=0;fontSize=16;" parent="WIyWlLk6GJQsqaUBKTNV-1" target="97" edge="1">
                    <mxGeometry relative="1" as="geometry">
                        <mxPoint x="375" y="400" as="sourcePoint"/>
                        <mxPoint x="380" y="432.5" as="targetPoint"/>
                    </mxGeometry>
                </mxCell>
                <mxCell id="108" style="edgeStyle=none;rounded=0;html=1;endArrow=classic;endFill=1;fontSize=16;" parent="WIyWlLk6GJQsqaUBKTNV-1" source="85" target="87" edge="1">
                    <mxGeometry relative="1" as="geometry"/>
                </mxCell>
                <mxCell id="85" value="Create .GEO image" style="rounded=1;whiteSpace=wrap;html=1;fontSize=16;glass=0;strokeWidth=1;shadow=0;" parent="WIyWlLk6GJQsqaUBKTNV-1" vertex="1">
                    <mxGeometry x="320" y="1010" width="110" height="40" as="geometry"/>
                </mxCell>
                <mxCell id="99" style="edgeStyle=none;html=1;endArrow=classic;endFill=1;rounded=0;fontSize=16;entryX=1.02;entryY=0.6;entryDx=0;entryDy=0;entryPerimeter=0;" parent="WIyWlLk6GJQsqaUBKTNV-1" source="87" target="117" edge="1">
                    <mxGeometry relative="1" as="geometry">
                        <mxPoint x="280" y="1420" as="targetPoint"/>
                        <Array as="points">
                            <mxPoint x="375" y="1420"/>
                        </Array>
                    </mxGeometry>
                </mxCell>
                <mxCell id="87" value="Encode image to base 64" style="rounded=1;whiteSpace=wrap;html=1;fontSize=16;glass=0;strokeWidth=1;shadow=0;" parent="WIyWlLk6GJQsqaUBKTNV-1" vertex="1">
                    <mxGeometry x="325" y="1210" width="100" height="55" as="geometry"/>
                </mxCell>
                <mxCell id="97" value="Send .GEO to LST Parser" style="rounded=1;whiteSpace=wrap;html=1;fontSize=16;glass=0;strokeWidth=1;shadow=0;" parent="WIyWlLk6GJQsqaUBKTNV-1" vertex="1">
                    <mxGeometry x="325" y="720" width="100" height="60" as="geometry"/>
                </mxCell>
                <mxCell id="109" style="edgeStyle=none;rounded=0;html=1;endArrow=classic;endFill=1;fontSize=16;" parent="WIyWlLk6GJQsqaUBKTNV-1" source="104" target="85" edge="1">
                    <mxGeometry relative="1" as="geometry"/>
                </mxCell>
                <mxCell id="104" value="Valid response ?" style="rhombus;fontSize=16;" parent="WIyWlLk6GJQsqaUBKTNV-1" vertex="1">
                    <mxGeometry x="302.5" y="800" width="145" height="115" as="geometry"/>
                </mxCell>
                <mxCell id="105" style="edgeStyle=none;html=1;entryX=0.5;entryY=0;entryDx=0;entryDy=0;fontSize=16;" parent="WIyWlLk6GJQsqaUBKTNV-1" target="104" edge="1">
                    <mxGeometry relative="1" as="geometry">
                        <mxPoint x="374.57" y="780" as="sourcePoint"/>
                        <mxPoint x="375" y="800" as="targetPoint"/>
                    </mxGeometry>
                </mxCell>
                <mxCell id="110" value="yes" style="text;html=1;align=center;verticalAlign=middle;resizable=0;points=[];autosize=1;strokeColor=none;fillColor=none;fontSize=16;" parent="WIyWlLk6GJQsqaUBKTNV-1" vertex="1">
                    <mxGeometry x="380" y="940" width="50" height="30" as="geometry"/>
                </mxCell>
                <mxCell id="111" style="edgeStyle=none;html=1;startArrow=none;startFill=0;endArrow=classic;endFill=1;rounded=0;fontSize=16;exitX=0;exitY=0.5;exitDx=0;exitDy=0;" parent="WIyWlLk6GJQsqaUBKTNV-1" source="104" edge="1">
                    <mxGeometry relative="1" as="geometry">
                        <mxPoint x="310" y="860" as="sourcePoint"/>
                        <mxPoint x="30" y="350" as="targetPoint"/>
                        <Array as="points">
                            <mxPoint x="30" y="858"/>
                        </Array>
                    </mxGeometry>
                </mxCell>
                <mxCell id="112" value="&lt;font&gt;Raise LST Parser error&lt;/font&gt;" style="text;html=1;align=center;verticalAlign=middle;resizable=0;points=[];autosize=1;strokeColor=none;fillColor=none;fontSize=16;" parent="WIyWlLk6GJQsqaUBKTNV-1" vertex="1">
                    <mxGeometry x="35" y="830" width="190" height="30" as="geometry"/>
                </mxCell>
                <mxCell id="113" value="&lt;font style=&quot;font-size: 14px;&quot;&gt;Raise RP error&lt;/font&gt;" style="text;html=1;align=center;verticalAlign=middle;resizable=0;points=[];autosize=1;strokeColor=none;fillColor=none;fontSize=16;rotation=0;" parent="WIyWlLk6GJQsqaUBKTNV-1" vertex="1">
                    <mxGeometry x="80" y="710" width="120" height="30" as="geometry"/>
                </mxCell>
                <mxCell id="114" value="&lt;font style=&quot;font-size: 14px;&quot;&gt;Rais Nash error&lt;/font&gt;" style="text;html=1;align=center;verticalAlign=middle;resizable=0;points=[];autosize=1;strokeColor=none;fillColor=none;fontSize=16;" parent="WIyWlLk6GJQsqaUBKTNV-1" vertex="1">
                    <mxGeometry x="60" y="1097.5" width="120" height="30" as="geometry"/>
                </mxCell>
                <mxCell id="4dbJirx7ubBffJhruziw-117" value="&lt;font&gt;yes&lt;/font&gt;" style="text;html=1;align=center;verticalAlign=middle;resizable=0;points=[];autosize=1;strokeColor=none;fillColor=none;fontSize=16;" parent="WIyWlLk6GJQsqaUBKTNV-1" vertex="1">
                    <mxGeometry x="315" y="350" width="50" height="30" as="geometry"/>
                </mxCell>
                <mxCell id="cPZUplwMds5rWrjOJL3n-115" value="&lt;font style=&quot;font-size: 16px;&quot;&gt;&lt;b&gt;&lt;u&gt;Backend&lt;/u&gt;&lt;/b&gt;&lt;/font&gt;" style="text;html=1;align=center;verticalAlign=middle;resizable=0;points=[];autosize=1;strokeColor=none;fillColor=none;" parent="WIyWlLk6GJQsqaUBKTNV-1" vertex="1">
                    <mxGeometry x="-230" y="280" width="90" height="30" as="geometry"/>
                </mxCell>
                <mxCell id="131" style="edgeStyle=none;rounded=0;html=1;entryX=0.5;entryY=1;entryDx=0;entryDy=0;strokeColor=default;" parent="WIyWlLk6GJQsqaUBKTNV-1" target="18" edge="1">
                    <mxGeometry relative="1" as="geometry">
                        <mxPoint x="160" y="1420" as="sourcePoint"/>
                        <Array as="points">
                            <mxPoint x="-140" y="1420"/>
                        </Array>
                    </mxGeometry>
                </mxCell>
                <mxCell id="117" value="Send response" style="rounded=1;whiteSpace=wrap;html=1;fontSize=16;glass=0;strokeWidth=1;shadow=0;" parent="WIyWlLk6GJQsqaUBKTNV-1" vertex="1">
                    <mxGeometry x="160.62" y="1390" width="120" height="50" as="geometry"/>
                </mxCell>
                <mxCell id="119" value="&lt;font&gt;yes&lt;/font&gt;" style="text;html=1;align=center;verticalAlign=middle;resizable=0;points=[];autosize=1;strokeColor=none;fillColor=none;fontSize=16;" parent="WIyWlLk6GJQsqaUBKTNV-1" vertex="1">
                    <mxGeometry x="300" y="200" width="50" height="30" as="geometry"/>
                </mxCell>
                <mxCell id="121" value="&lt;font&gt;no&lt;/font&gt;" style="text;html=1;align=center;verticalAlign=middle;resizable=0;points=[];autosize=1;strokeColor=none;fillColor=none;fontSize=16;" parent="WIyWlLk6GJQsqaUBKTNV-1" vertex="1">
                    <mxGeometry x="196.88" y="150" width="40" height="30" as="geometry"/>
                </mxCell>
                <mxCell id="125" style="edgeStyle=none;rounded=0;html=1;entryX=0.5;entryY=0;entryDx=0;entryDy=0;strokeColor=default;" parent="WIyWlLk6GJQsqaUBKTNV-1" source="123" target="WIyWlLk6GJQsqaUBKTNV-3" edge="1">
                    <mxGeometry relative="1" as="geometry"/>
                </mxCell>
                <mxCell id="130" style="edgeStyle=none;rounded=0;html=1;entryX=1;entryY=0.5;entryDx=0;entryDy=0;strokeColor=default;" parent="WIyWlLk6GJQsqaUBKTNV-1" source="123" target="128" edge="1">
                    <mxGeometry relative="1" as="geometry"/>
                </mxCell>
                <mxCell id="123" value="all parameters set ?" style="rhombus;whiteSpace=wrap;html=1;shadow=0;fontFamily=Helvetica;fontSize=16;align=center;strokeWidth=1;spacing=6;spacingTop=-4;" parent="WIyWlLk6GJQsqaUBKTNV-1" vertex="1">
                    <mxGeometry x="242.11" y="-40" width="102.66" height="90" as="geometry"/>
                </mxCell>
                <mxCell id="133" style="edgeStyle=none;rounded=0;html=1;entryX=0;entryY=0.5;entryDx=0;entryDy=0;strokeColor=default;" parent="WIyWlLk6GJQsqaUBKTNV-1" source="128" target="49" edge="1">
                    <mxGeometry relative="1" as="geometry">
                        <Array as="points">
                            <mxPoint x="155" y="-165"/>
                        </Array>
                    </mxGeometry>
                </mxCell>
                <mxCell id="128" value="&lt;font&gt;Show error popup&lt;/font&gt;" style="rounded=1;whiteSpace=wrap;html=1;fontSize=16;glass=0;strokeWidth=1;shadow=0;" parent="WIyWlLk6GJQsqaUBKTNV-1" vertex="1">
                    <mxGeometry x="95" y="-15" width="120" height="40" as="geometry"/>
                </mxCell>
                <mxCell id="134" value="&lt;font&gt;no&lt;/font&gt;" style="text;html=1;align=center;verticalAlign=middle;resizable=0;points=[];autosize=1;strokeColor=none;fillColor=none;fontSize=16;" parent="WIyWlLk6GJQsqaUBKTNV-1" vertex="1">
                    <mxGeometry x="215" y="-30" width="40" height="30" as="geometry"/>
                </mxCell>
                <mxCell id="135" value="&lt;font&gt;yes&lt;/font&gt;" style="text;html=1;align=center;verticalAlign=middle;resizable=0;points=[];autosize=1;strokeColor=none;fillColor=none;fontSize=16;" parent="WIyWlLk6GJQsqaUBKTNV-1" vertex="1">
                    <mxGeometry x="293.44" y="40" width="50" height="30" as="geometry"/>
                </mxCell>
                <mxCell id="145" style="edgeStyle=none;rounded=0;html=1;strokeColor=default;exitX=0.483;exitY=0.007;exitDx=0;exitDy=0;exitPerimeter=0;" parent="WIyWlLk6GJQsqaUBKTNV-1" source="137" edge="1">
                    <mxGeometry relative="1" as="geometry">
                        <mxPoint x="120" y="30" as="targetPoint"/>
                    </mxGeometry>
                </mxCell>
                <mxCell id="137" value="&lt;font&gt;Safe Error Message&lt;/font&gt;" style="rounded=1;whiteSpace=wrap;html=1;fontSize=16;glass=0;strokeWidth=1;shadow=0;" parent="WIyWlLk6GJQsqaUBKTNV-1" vertex="1">
                    <mxGeometry x="70" y="310" width="100" height="40" as="geometry"/>
                </mxCell>
                <mxCell id="29" value="&lt;font&gt;Specify uploadparameter&lt;/font&gt;" style="rounded=1;whiteSpace=wrap;html=1;fontSize=16;glass=0;strokeWidth=1;shadow=0;" parent="WIyWlLk6GJQsqaUBKTNV-1" vertex="1">
                    <mxGeometry x="225" y="-110" width="137.5" height="50" as="geometry"/>
                </mxCell>
            </root>
        </mxGraphModel>
    </diagram>
</mxfile>